<svg width="364" height="364" viewBox="0 0 364 364" fill="none" xmlns="http://www.w3.org/2000/svg">
<circle cx="182" cy="182" r="162.5" fill="url(#paint0_linear_9085_656)" stroke="white" stroke-width="5"/>
<circle cx="182" cy="182" r="179.5" stroke="url(#paint1_linear_9085_656)" stroke-width="4"/>
<path fill-rule="evenodd" clip-rule="evenodd" d="M203.08 189.57C201.88 189.66 195.68 190.03 181.85 190.03C170.85 190.03 163.04 189.7 160.3 189.57C117.79 187.7 86.06 180.3 86.06 171.44C86.06 162.58 117.79 155.19 160.3 153.29V182.2C163.08 182.4 171.04 182.87 182.04 182.87C195.24 182.87 201.85 182.32 203.04 182.21V153.31C245.46 155.2 277.12 162.6 277.12 171.44C277.12 180.28 245.47 187.68 203.04 189.56L203.08 189.57ZM203.08 150.32V124.45H262.28V85H101.1V124.45H160.29V150.31C112.18 152.52 76 162.05 76 173.47C76 184.89 112.18 194.41 160.29 196.63V279.53H203.07V196.6C251.07 194.39 287.19 184.87 287.19 173.46C287.19 162.05 251.1 152.53 203.07 150.31L203.08 150.32Z" fill="white"/>
<defs>
<linearGradient id="paint0_linear_9085_656" x1="17" y1="182" x2="347" y2="182" gradientUnits="userSpaceOnUse">
<stop stop-color="#5951B0"/>
<stop offset="1" stop-color="#50AF95"/>
</linearGradient>
<linearGradient id="paint1_linear_9085_656" x1="0.5" y1="182" x2="363.5" y2="182" gradientUnits="userSpaceOnUse">
<stop stop-color="#5954AF"/>
<stop offset="1" stop-color="#50AB96"/>
</linearGradient>
</defs>
</svg>
