<svg xmlns="http://www.w3.org/2000/svg" xmlns:xlink="http://www.w3.org/1999/xlink" viewBox="0 0 442.72 70.91"><defs><linearGradient id="Gradient_7" x1="40.24" y1="1202.12" x2="36.37" y2="1186.51" gradientTransform="matrix(1, 0, 0, -1, -8.36, 1212.6)" gradientUnits="userSpaceOnUse"><stop offset="0.08" stop-color="#2c7aa8"/><stop offset="1" stop-color="#5ffeae"/></linearGradient><linearGradient id="Gradient_2" x1="38.96" y1="1201.29" x2="21.67" y2="1158.46" gradientTransform="matrix(1, 0, 0, -1, -8.36, 1212.6)" gradientUnits="userSpaceOnUse"><stop offset="0.11" stop-color="#267daf"/><stop offset="1" stop-color="#5ffeae"/></linearGradient><linearGradient id="Gradient_3" x1="46.45" y1="1203.04" x2="38.46" y2="1189.08" gradientTransform="matrix(1, 0, 0, -1, -8.36, 1212.6)" gradientUnits="userSpaceOnUse"><stop offset="0.04"/><stop offset="0.96" stop-color="#0e0e0e" stop-opacity="0"/></linearGradient><linearGradient id="Gradient_4" x1="31.93" y1="1191.81" x2="31.16" y2="1173.15" gradientTransform="matrix(1, 0, 0, -1, -8.36, 1212.6)" gradientUnits="userSpaceOnUse"><stop offset="0.05"/><stop offset="0.9" stop-color="#0e0e0e" stop-opacity="0"/></linearGradient><linearGradient id="Gradient_5" x1="53.26" y1="1210.24" x2="68.36" y2="1147.53" gradientTransform="matrix(1, 0, 0, -1, -8.36, 1212.6)" gradientUnits="userSpaceOnUse"><stop offset="0.08" stop-color="#4dfc8d"/><stop offset="1" stop-color="#1fc3f1"/></linearGradient><linearGradient id="Gradient_6" x1="-0.7" y1="1177.14" x2="57.75" y2="1139.98" gradientTransform="matrix(1, 0, 0, -1, -8.36, 1212.6)" gradientUnits="userSpaceOnUse"><stop offset="0.07" stop-color="#3efe99"/><stop offset="1" stop-color="#2aabf0"/></linearGradient></defs><g id="Layer_2" data-name="Layer 2"><g id="Layer_1-2" data-name="Layer 1"><g id="Layer_2-2" data-name="Layer 2"><g id="Layer_1-2-2" data-name="Layer 1-2"><path d="M48.55,30.1a5.54,5.54,0,0,0-2.2-3.61c-6.54-5.74-22.07-6.13-39.82-.61l22-12.68C44.39,11,48.12,20.89,48.55,30.1Z" opacity="0.99" fill="url(#Gradient_7)" style="isolation:isolate"/><path d="M46.35,26.49a5.64,5.64,0,0,0-6.23-.37L12.87,41.85A8.5,8.5,0,0,1,4.14,27.26a1.71,1.71,0,0,1,.23-.13l2.16-1.25C24.28,20.36,39.81,20.75,46.35,26.49Z" fill="url(#Gradient_2)"/><path d="M48.55,30.1a5.54,5.54,0,0,0-2.2-3.61c-6.54-5.74-22.07-6.13-39.82-.61l22-12.68C44.39,11,48.12,20.89,48.55,30.1Z" opacity="0.32" fill="url(#Gradient_3)" style="isolation:isolate"/><path d="M46.35,26.49a5.64,5.64,0,0,0-6.23-.37L12.87,41.85A8.5,8.5,0,0,1,4.14,27.26a1.71,1.71,0,0,1,.23-.13l2.16-1.25C24.28,20.36,39.81,20.75,46.35,26.49Z" opacity="0.32" fill="url(#Gradient_4)" style="isolation:isolate"/><path d="M65.77,11.46l-.28,51A8.49,8.49,0,0,1,57,70.91h0a8.5,8.5,0,0,1-8.45-8.54l.15-31.3a5.55,5.55,0,0,0-.08-1C48.12,20.89,44.39,11,28.49,13.2L48.7,1.53a11.38,11.38,0,0,1,17.07,9.93Z" fill="url(#Gradient_5)"/><path d="M16.12,61.44a25.54,25.54,0,0,0,13.52,7.71,2.63,2.63,0,0,0,3.17-1.92,2.41,2.41,0,0,0,.08-.6c0-3.68,0-9.83.06-14.08a2.6,2.6,0,0,0-3.83-2.26L16.78,57.43a2.6,2.6,0,0,0-1,3.55A2.15,2.15,0,0,0,16.12,61.44Z" fill="url(#Gradient_6)"/></g></g><path d="M116.43,35.27h13.19V51.15a20.8,20.8,0,0,1-6.26,3.14,24.6,24.6,0,0,1-7,1,23.93,23.93,0,0,1-8.59-1.47,19.3,19.3,0,0,1-6.57-4.09A18.12,18.12,0,0,1,97,43.49a20.46,20.46,0,0,1-1.48-7.87,21.54,21.54,0,0,1,1.41-7.92,18,18,0,0,1,4-6.21,18.48,18.48,0,0,1,6.35-4A22.72,22.72,0,0,1,115.6,16a24,24,0,0,1,4.46.39,21,21,0,0,1,3.81,1.06,17.8,17.8,0,0,1,3.21,1.6,18.79,18.79,0,0,1,2.65,2l-2.31,3.55a2.1,2.1,0,0,1-1.37,1,2.48,2.48,0,0,1-1.86-.42c-.64-.39-1.26-.74-1.87-1.05a16.1,16.1,0,0,0-1.94-.81,14.42,14.42,0,0,0-2.26-.52,18,18,0,0,0-2.81-.19,12.23,12.23,0,0,0-4.85.93,10.39,10.39,0,0,0-3.69,2.62,11.71,11.71,0,0,0-2.35,4.08,16.25,16.25,0,0,0-.82,5.33,16.72,16.72,0,0,0,.9,5.68,11.79,11.79,0,0,0,2.55,4.23A10.73,10.73,0,0,0,111,48.15a13.86,13.86,0,0,0,5.1.9,13.63,13.63,0,0,0,3.41-.38,17.68,17.68,0,0,0,2.93-1.05V41.16h-4.35a1.74,1.74,0,0,1-1.21-.41,1.4,1.4,0,0,1-.43-1Z" fill="#fff"/><path d="M134.45,31.33a16.17,16.17,0,0,1,5.32-3.25A18.06,18.06,0,0,1,146.08,27a11.3,11.3,0,0,1,4.36.79A9.36,9.36,0,0,1,153.7,30a9.64,9.64,0,0,1,2.05,3.38,12.4,12.4,0,0,1,.72,4.3V54.86h-3.34a3.47,3.47,0,0,1-1.58-.29,2.13,2.13,0,0,1-.88-1.22l-.59-1.75c-.69.6-1.35,1.13-2,1.59a11.48,11.48,0,0,1-2,1.15,10.56,10.56,0,0,1-2.21.7,13.34,13.34,0,0,1-2.64.24,10.67,10.67,0,0,1-3.29-.48,7.11,7.11,0,0,1-2.55-1.41A6.24,6.24,0,0,1,133.73,51a8.31,8.31,0,0,1-.58-3.23,6.48,6.48,0,0,1,.77-3A7.49,7.49,0,0,1,136.55,42a16.86,16.86,0,0,1,5-2,35.25,35.25,0,0,1,7.8-.91v-1.4a5.49,5.49,0,0,0-1.09-3.78,4,4,0,0,0-3.12-1.21,7.56,7.56,0,0,0-2.52.36,12.84,12.84,0,0,0-1.76.77l-1.42.77a3.18,3.18,0,0,1-1.54.36,2.05,2.05,0,0,1-1.28-.39,3.23,3.23,0,0,1-.86-.91Zm14.89,12.11a32.74,32.74,0,0,0-4.45.46,10.64,10.64,0,0,0-2.82.86A3.68,3.68,0,0,0,140.58,46a2.67,2.67,0,0,0-.44,1.47,2.63,2.63,0,0,0,.89,2.25,4.08,4.08,0,0,0,2.48.66,7.12,7.12,0,0,0,3.17-.65,9.61,9.61,0,0,0,2.66-2Z" fill="#fff"/><path d="M170.59,19.77a4,4,0,0,1-.37,1.72,5,5,0,0,1-1,1.41A4.67,4.67,0,0,1,166,24.2a4.32,4.32,0,0,1-1.71-.35,4.6,4.6,0,0,1-1.42-1,4.89,4.89,0,0,1-1-1.41,4.11,4.11,0,0,1-.36-1.72,4.19,4.19,0,0,1,.36-1.73,4.68,4.68,0,0,1,1-1.42,4.45,4.45,0,0,1,1.42-1,4.31,4.31,0,0,1,1.71-.34,4.64,4.64,0,0,1,1.79.34,4.52,4.52,0,0,1,1.46,1,4.77,4.77,0,0,1,1,1.42A4,4,0,0,1,170.59,19.77Zm-.87,7.77V54.86H162.4V27.54Z" fill="#fff"/><path d="M182.76,30.72a15.71,15.71,0,0,1,1.71-1.46,11.21,11.21,0,0,1,1.88-1.14,9.65,9.65,0,0,1,2.14-.74,11,11,0,0,1,2.51-.27,9.67,9.67,0,0,1,3.95.77,8.18,8.18,0,0,1,2.9,2.15,9.34,9.34,0,0,1,1.77,3.28,13.91,13.91,0,0,1,.6,4.19V54.86h-7.29V37.5A5.32,5.32,0,0,0,191.87,34a3.86,3.86,0,0,0-3.13-1.26,6.35,6.35,0,0,0-2.88.67,10,10,0,0,0-2.57,1.85V54.86H176V27.54h4.51a1.77,1.77,0,0,1,1.82,1.27Z" fill="#fff"/><path d="M223,33.15a2.26,2.26,0,0,1-.6.65,1.44,1.44,0,0,1-.83.2,2.6,2.6,0,0,1-1.09-.26c-.37-.18-.79-.37-1.25-.57a11.33,11.33,0,0,0-1.57-.57,7.14,7.14,0,0,0-2.06-.27,4.57,4.57,0,0,0-2.75.73,2.27,2.27,0,0,0-1,1.92,1.87,1.87,0,0,0,.55,1.38,5.14,5.14,0,0,0,1.47,1,19,19,0,0,0,2.09.77c.77.23,1.57.5,2.39.78a22.77,22.77,0,0,1,2.4,1,8.31,8.31,0,0,1,2.08,1.39,6.45,6.45,0,0,1,1.47,2,6.67,6.67,0,0,1,.56,2.85,9,9,0,0,1-.73,3.67,8.12,8.12,0,0,1-2.13,2.9,10.05,10.05,0,0,1-3.5,1.91,16.61,16.61,0,0,1-7.61.44,15.78,15.78,0,0,1-2.62-.72A16,16,0,0,1,206,53.24a10.73,10.73,0,0,1-1.88-1.32l1.69-2.73a2.28,2.28,0,0,1,.73-.75,2.22,2.22,0,0,1,1.13-.26,2.35,2.35,0,0,1,1.22.33l1.24.72a11,11,0,0,0,1.63.71,7.19,7.19,0,0,0,2.35.33A6.13,6.13,0,0,0,215.9,50a3.35,3.35,0,0,0,1.25-.65,2.54,2.54,0,0,0,.7-.92,2.69,2.69,0,0,0,.23-1.08,2,2,0,0,0-.57-1.47,5.09,5.09,0,0,0-1.49-1,15.29,15.29,0,0,0-2.1-.77c-.8-.23-1.61-.48-2.43-.77a21.87,21.87,0,0,1-2.41-1A8.37,8.37,0,0,1,207,40.91a7,7,0,0,1-1.49-2.19,7.85,7.85,0,0,1-.57-3.15,8,8,0,0,1,.67-3.22,7.41,7.41,0,0,1,2-2.69,9.79,9.79,0,0,1,3.29-1.86,13.85,13.85,0,0,1,4.57-.69,14.05,14.05,0,0,1,5.3,1,11.42,11.42,0,0,1,3.93,2.49Z" fill="#fff"/><path d="M274.65,16.88v38h-2.57a2.26,2.26,0,0,1-1-.21,2.62,2.62,0,0,1-.8-.72l-22-28.62c0,.44.06.87.08,1.3s0,.82,0,1.19V54.86h-4.5v-38h2.65a4.52,4.52,0,0,1,.58,0,1.8,1.8,0,0,1,.43.13,2.65,2.65,0,0,1,.37.27,4.62,4.62,0,0,1,.39.44l22,28.59c0-.46-.06-.9-.09-1.34s0-.84,0-1.23V16.88Z" fill="#fff"/><path d="M304.2,51.09a9.09,9.09,0,0,1-2.09,1.85,12.65,12.65,0,0,1-2.61,1.28,16.49,16.49,0,0,1-2.88.76,18.43,18.43,0,0,1-2.94.25,13.85,13.85,0,0,1-5.13-.94,11.32,11.32,0,0,1-4.05-2.76A12.57,12.57,0,0,1,281.84,47a18.13,18.13,0,0,1-1-6.15,15.8,15.8,0,0,1,.86-5.25,12.42,12.42,0,0,1,2.48-4.22,11.51,11.51,0,0,1,3.95-2.81,12.94,12.94,0,0,1,5.25-1,12,12,0,0,1,4.46.81,10,10,0,0,1,3.55,2.33,10.78,10.78,0,0,1,2.35,3.76,14.5,14.5,0,0,1,.85,5.1,3.1,3.1,0,0,1-.24,1.49,1,1,0,0,1-.9.37H285.55a15.39,15.39,0,0,0,.7,4.42A8.65,8.65,0,0,0,288,49a7.06,7.06,0,0,0,2.64,1.89,9.26,9.26,0,0,0,3.45.62,10.26,10.26,0,0,0,3.06-.41,14.46,14.46,0,0,0,2.21-.89,15.14,15.14,0,0,0,1.55-.89,2.12,2.12,0,0,1,1.08-.41,1,1,0,0,1,.9.45Zm-3.81-12.58a9.27,9.27,0,0,0-.47-3,6.78,6.78,0,0,0-1.35-2.36,6.13,6.13,0,0,0-2.16-1.54,7.34,7.34,0,0,0-2.89-.54,7.22,7.22,0,0,0-5.36,2,9.13,9.13,0,0,0-2.45,5.47Z" fill="#fff"/><path d="M318.46,55.28a6.49,6.49,0,0,1-4.89-1.77,7.1,7.1,0,0,1-1.71-5.12V32h-3.23a1.07,1.07,0,0,1-.72-.25,1,1,0,0,1-.29-.78V29.05l4.4-.56,1.09-8.29a1.12,1.12,0,0,1,.35-.65,1.05,1.05,0,0,1,.73-.26h2.39v9.25h7.76V32h-7.76V48.07a3.43,3.43,0,0,0,.82,2.52,2.86,2.86,0,0,0,2.12.82,3.64,3.64,0,0,0,1.29-.2,5.5,5.5,0,0,0,.94-.43c.26-.16.49-.31.67-.44a.92.92,0,0,1,.49-.2.8.8,0,0,1,.66.45L325,52.84A8.69,8.69,0,0,1,322,54.63,10,10,0,0,1,318.46,55.28Z" fill="#fff"/><path d="M366.24,28l-8.69,26.85h-3.74c-.46,0-.78-.3-.95-.9l-5.94-18.21a9.4,9.4,0,0,1-.34-1.23q-.13-.63-.27-1.23c-.09.4-.18.81-.26,1.23s-.21.83-.35,1.26l-6,18.18a1,1,0,0,1-1.06.9h-3.55L326.36,28h3.71a1.55,1.55,0,0,1,.94.29,1.45,1.45,0,0,1,.51.69l5.14,17.28c.31,1.27.54,2.48.72,3.6.16-.58.32-1.17.49-1.77s.35-1.21.54-1.83l5.67-17.38a1.44,1.44,0,0,1,.47-.67,1.29,1.29,0,0,1,.81-.26h2.06a1.44,1.44,0,0,1,.88.26,1.39,1.39,0,0,1,.48.67l5.53,17.38c.2.62.38,1.23.53,1.83s.31,1.19.45,1.77c.09-.58.2-1.16.34-1.76s.27-1.2.43-1.84L361.31,29a1.45,1.45,0,0,1,.5-.7,1.47,1.47,0,0,1,.88-.28Z" fill="#fff"/><path d="M381.79,27.59a13.75,13.75,0,0,1,5.3,1,11.24,11.24,0,0,1,4,2.78,12.12,12.12,0,0,1,2.56,4.36,17.41,17.41,0,0,1,.89,5.71,17.4,17.4,0,0,1-.89,5.73,12.12,12.12,0,0,1-2.56,4.34,11.09,11.09,0,0,1-4,2.77,13.75,13.75,0,0,1-5.3,1,14,14,0,0,1-5.34-1,11.21,11.21,0,0,1-4-2.77,12.25,12.25,0,0,1-2.55-4.34,17.14,17.14,0,0,1-.89-5.73,17.15,17.15,0,0,1,.89-5.71,12.25,12.25,0,0,1,2.55-4.36,11.36,11.36,0,0,1,4-2.78A14,14,0,0,1,381.79,27.59Zm0,24a6.89,6.89,0,0,0,5.94-2.66q2-2.66,2-7.43t-2-7.47a6.88,6.88,0,0,0-5.94-2.68,8.33,8.33,0,0,0-3.51.69,6.46,6.46,0,0,0-2.49,2,8.72,8.72,0,0,0-1.48,3.19,17,17,0,0,0-.49,4.28q0,4.77,2,7.43A7,7,0,0,0,381.79,51.54Z" fill="#fff"/><path d="M405,33.39a12.21,12.21,0,0,1,3.12-4.3,6.82,6.82,0,0,1,4.54-1.55,7.27,7.27,0,0,1,1.63.18,4.69,4.69,0,0,1,1.39.58l-.35,3.53a.75.75,0,0,1-.79.66,5.23,5.23,0,0,1-1.09-.16,7.86,7.86,0,0,0-1.62-.16,6.61,6.61,0,0,0-2.26.37,5.47,5.47,0,0,0-1.78,1.1,7.7,7.7,0,0,0-1.4,1.81,15.11,15.11,0,0,0-1.13,2.45v17h-4.74V28h2.7a1.51,1.51,0,0,1,1.06.29,1.76,1.76,0,0,1,.4,1Z" fill="#fff"/><path d="M424.57,15.82v23h1.21a2.3,2.3,0,0,0,.89-.15,2.09,2.09,0,0,0,.76-.59L435.91,29a3,3,0,0,1,.78-.71,2.16,2.16,0,0,1,1.1-.25h4.26l-9.88,10.52a6.11,6.11,0,0,1-1.54,1.41,4.32,4.32,0,0,1,.86.73,6,6,0,0,1,.73.94l10.5,13.25H438.5a2.54,2.54,0,0,1-1-.2,1.76,1.76,0,0,1-.76-.73l-8.82-11a2.25,2.25,0,0,0-.78-.73,3.16,3.16,0,0,0-1.18-.17h-1.35V54.86h-4.75v-39Z" fill="#fff"/></g></g></svg>
