<svg xmlns="http://www.w3.org/2000/svg" xmlns:xlink="http://www.w3.org/1999/xlink" viewBox="0 0 70.91 70.91">
    <defs>
        <linearGradient id="Gradient_7" x1="40.24" y1="1202.12" x2="36.37" y2="1186.51"
                        gradientTransform="matrix(1, 0, 0, -1, -8.36, 1212.6)" gradientUnits="userSpaceOnUse">
            <stop offset="0.08" stop-color="#2c7aa8"/>
            <stop offset="1" stop-color="#5ffeae"/>
        </linearGradient>
        <linearGradient id="Gradient_2" x1="38.96" y1="1201.29" x2="21.67" y2="1158.46"
                        gradientTransform="matrix(1, 0, 0, -1, -8.36, 1212.6)" gradientUnits="userSpaceOnUse">
            <stop offset="0.11" stop-color="#267daf"/>
            <stop offset="1" stop-color="#5ffeae"/>
        </linearGradient>
        <linearGradient id="Gradient_3" x1="46.45" y1="1203.04" x2="38.46" y2="1189.08"
                        gradientTransform="matrix(1, 0, 0, -1, -8.36, 1212.6)" gradientUnits="userSpaceOnUse">
            <stop offset="0.04"/>
            <stop offset="0.96" stop-color="#0e0e0e" stop-opacity="0"/>
        </linearGradient>
        <linearGradient id="Gradient_4" x1="31.93" y1="1191.81" x2="31.16" y2="1173.15"
                        gradientTransform="matrix(1, 0, 0, -1, -8.36, 1212.6)" gradientUnits="userSpaceOnUse">
            <stop offset="0.05"/>
            <stop offset="0.9" stop-color="#0e0e0e" stop-opacity="0"/>
        </linearGradient>
        <linearGradient id="Gradient_5" x1="53.26" y1="1210.24" x2="68.36" y2="1147.53"
                        gradientTransform="matrix(1, 0, 0, -1, -8.36, 1212.6)" gradientUnits="userSpaceOnUse">
            <stop offset="0.08" stop-color="#4dfc8d"/>
            <stop offset="1" stop-color="#1fc3f1"/>
        </linearGradient>
        <linearGradient id="Gradient_6" x1="-0.7" y1="1177.14" x2="57.75" y2="1139.98"
                        gradientTransform="matrix(1, 0, 0, -1, -8.36, 1212.6)" gradientUnits="userSpaceOnUse">
            <stop offset="0.07" stop-color="#3efe99"/>
            <stop offset="1" stop-color="#2aabf0"/>
        </linearGradient>
    </defs>
    <g id="Layer_2" data-name="Layer 2">
        <g id="Layer_1-2" data-name="Layer 1">
            <g id="Layer_2-2" data-name="Layer 2">
                <g id="Layer_1-2-2" data-name="Layer 1-2">
                    <path d="M48.55,30.1a5.54,5.54,0,0,0-2.2-3.61c-6.54-5.74-22.07-6.13-39.82-.61l22-12.68C44.39,11,48.12,20.89,48.55,30.1Z"
                          opacity="0.99" fill="url(#Gradient_7)" style="isolation:isolate"/>
                    <path d="M46.35,26.49a5.64,5.64,0,0,0-6.23-.37L12.87,41.85A8.5,8.5,0,0,1,4.14,27.26a1.71,1.71,0,0,1,.23-.13l2.16-1.25C24.28,20.36,39.81,20.75,46.35,26.49Z"
                          fill="url(#Gradient_2)"/>
                    <path d="M48.55,30.1a5.54,5.54,0,0,0-2.2-3.61c-6.54-5.74-22.07-6.13-39.82-.61l22-12.68C44.39,11,48.12,20.89,48.55,30.1Z"
                          opacity="0.32" fill="url(#Gradient_3)" style="isolation:isolate"/>
                    <path d="M46.35,26.49a5.64,5.64,0,0,0-6.23-.37L12.87,41.85A8.5,8.5,0,0,1,4.14,27.26a1.71,1.71,0,0,1,.23-.13l2.16-1.25C24.28,20.36,39.81,20.75,46.35,26.49Z"
                          opacity="0.32" fill="url(#Gradient_4)" style="isolation:isolate"/>
                    <path d="M65.77,11.46l-.28,51A8.49,8.49,0,0,1,57,70.91h0a8.5,8.5,0,0,1-8.45-8.54l.15-31.3a5.55,5.55,0,0,0-.08-1C48.12,20.89,44.39,11,28.49,13.2L48.7,1.53a11.38,11.38,0,0,1,17.07,9.93Z"
                          fill="url(#Gradient_5)"/>
                    <path d="M16.12,61.44a25.54,25.54,0,0,0,13.52,7.71,2.63,2.63,0,0,0,3.17-1.92,2.41,2.41,0,0,0,.08-.6c0-3.68,0-9.83.06-14.08a2.6,2.6,0,0,0-3.83-2.26L16.78,57.43a2.6,2.6,0,0,0-1,3.55A2.15,2.15,0,0,0,16.12,61.44Z"
                          fill="url(#Gradient_6)"/>
                </g>
            </g>
        </g>
    </g>
</svg>
