<svg width="24" height="25" viewBox="0 0 24 25" fill="none" xmlns="http://www.w3.org/2000/svg">
<rect y="0.73938" width="24" height="24" rx="12" fill="url(#paint0_linear_14_151)"/>
<path fill-rule="evenodd" clip-rule="evenodd" d="M15.556 13.8447C12.9776 13.8447 10.8879 11.7556 10.8879 9.18066C10.8879 7.8325 9.80039 6.73938 8.444 6.73938C7.09979 6.73938 6 7.8325 6 9.18066C6 10.5289 7.08756 11.622 8.444 11.622H8.45619C11.0224 11.622 13.0998 13.7111 13.112 16.2859V16.2981C13.112 17.6463 14.1996 18.7394 15.556 18.7394C16.9124 18.7394 18 17.6463 18 16.2981C17.9878 14.9378 16.9002 13.8447 15.556 13.8447Z" fill="url(#paint1_linear_14_151)"/>
<path fill-rule="evenodd" clip-rule="evenodd" d="M8.45617 13.8446C7.11197 13.8446 6.01218 14.9377 6.01218 16.2859C6.01218 17.6341 7.09973 18.7272 8.45617 18.7272C9.81257 18.7272 10.9002 17.6341 10.9002 16.2859C10.8879 14.9377 9.80038 13.8446 8.45617 13.8446Z" fill="url(#paint2_linear_14_151)"/>
<path fill-rule="evenodd" clip-rule="evenodd" d="M15.556 6.73938C16.9058 6.73938 18 7.83236 18 9.18066C18 10.529 16.9058 11.622 15.556 11.622C14.2062 11.622 13.112 10.529 13.112 9.18066C13.112 7.83236 14.2062 6.73938 15.556 6.73938Z" fill="url(#paint3_linear_14_151)"/>
<defs>
<linearGradient id="paint0_linear_14_151" x1="12" y1="0.73938" x2="24" y2="24.7394" gradientUnits="userSpaceOnUse">
<stop stop-color="#5DEBE5"/>
<stop offset="1" stop-color="#46D5CF"/>
</linearGradient>
<linearGradient id="paint1_linear_14_151" x1="12" y1="6.73938" x2="15.1875" y2="18.7394" gradientUnits="userSpaceOnUse">
<stop stop-color="#2E2E2E"/>
<stop offset="1" stop-color="#010000"/>
</linearGradient>
<linearGradient id="paint2_linear_14_151" x1="8.45617" y1="13.8446" x2="9.75187" y2="18.7279" gradientUnits="userSpaceOnUse">
<stop stop-color="#2E2E2E"/>
<stop offset="1" stop-color="#010000"/>
</linearGradient>
<linearGradient id="paint3_linear_14_151" x1="15.556" y1="6.73938" x2="16.8517" y2="11.6227" gradientUnits="userSpaceOnUse">
<stop stop-color="#2E2E2E"/>
<stop offset="1" stop-color="#010000"/>
</linearGradient>
</defs>
</svg>
