<svg width="48" height="48" viewBox="0 0 48 48" fill="none" xmlns="http://www.w3.org/2000/svg">
    <path d="M48 23.9996C48 30.3649 45.4714 36.4695 40.9704 40.9704C36.4695 45.4714 30.3649 48 23.9996 48C17.6346 47.9998 11.5303 45.4712 7.02956 40.9704C2.52881 36.4697 0.000218959 30.3654 0 24.0004C-3.76631e-09 17.6353 2.5285 11.5308 7.02927 7.02985C11.53 2.52893 17.6344 0.000218967 23.9996 0C30.3647 -3.76633e-09 36.4692 2.52849 40.9701 7.02927C45.4711 11.53 47.9998 17.6344 48 23.9996Z" fill="#111C23"/>
    <path d="M27.2824 39.2069C27.0992 39.207 26.9218 39.1427 26.7812 39.0252C26.6933 38.9519 26.6226 38.8601 26.5741 38.7563C26.5256 38.6526 26.5005 38.5395 26.5005 38.425V31.9702C26.5006 31.787 26.5649 31.6097 26.6823 31.4691C26.7997 31.3285 26.9626 31.2335 27.1428 31.2007C28.9163 30.8758 30.5511 30.0252 31.8349 28.7593C32.0884 28.5065 32.324 28.2364 32.54 27.951C30.2959 25.7152 27.7133 26.6787 24.7229 27.7933L23.8246 28.1235C20.7697 29.2629 17.3021 30.5542 14.3471 27.5984C13.3956 26.626 12.7983 25.3621 12.6509 24.0095C12.5036 22.657 12.8148 21.2942 13.5347 20.1396C11.9263 17.6371 12.477 14.2619 15.0605 11.6777C16.5697 10.1878 18.4922 9.18634 20.5782 8.80367C20.6909 8.78313 20.8067 8.78764 20.9174 8.81689C21.0281 8.84615 21.1311 8.89941 21.2189 8.97292C21.3068 9.04627 21.3775 9.13807 21.426 9.24179C21.4746 9.34552 21.4997 9.45865 21.4996 9.57316V16.0354C21.4995 16.2184 21.4353 16.3957 21.3181 16.5362C21.2009 16.6768 21.0381 16.7719 20.8581 16.8049C19.0846 17.1298 17.4498 17.9804 16.166 19.2463C15.9127 19.4993 15.6771 19.7693 15.4609 20.0546C17.705 22.2896 20.2876 21.3269 23.278 20.2115L24.1763 19.8812C27.2312 18.741 30.6988 17.4497 33.6538 20.4063C34.2578 21.0053 34.722 21.7304 35.0132 22.5297C35.3043 23.329 35.4153 24.1827 35.3381 25.0299C35.2478 26.0229 34.9496 26.9858 34.4629 27.856C36.0746 30.3552 35.5263 33.7346 32.9371 36.3205C31.4286 37.81 29.507 38.8114 27.4219 39.1945C27.3756 39.2029 27.3286 39.2071 27.2815 39.2069H27.2824ZM28.0634 32.6018V37.4351C29.4852 37.0203 30.781 36.2572 31.8333 35.2149C33.6497 33.3985 34.2235 31.1173 33.4573 29.305C33.2922 29.4971 33.1196 29.6845 32.9396 29.8673C31.591 31.2009 29.9071 32.1454 28.0659 32.601L28.0634 32.6018ZM14.6493 21.4359C14.2456 22.2593 14.106 23.1873 14.2496 24.0931C14.3933 24.9988 14.8131 25.8381 15.4518 26.4962C17.6975 28.7419 20.2826 27.7776 23.2764 26.6613L24.1747 26.3311C27.128 25.2305 30.4619 23.9879 33.35 26.5705C33.5817 26.0411 33.7259 25.4776 33.7768 24.9019C33.8344 24.2807 33.7539 23.6544 33.541 23.0678C33.3282 22.4813 32.9884 21.9492 32.5458 21.5094C30.3001 19.2636 27.715 20.228 24.7212 21.3442L23.8229 21.6745C20.8705 22.7751 17.5365 24.0185 14.6485 21.4367L14.6493 21.4359ZM19.9325 10.5689C18.5108 10.9839 17.2151 11.7469 16.1627 12.789C14.3463 14.6054 13.7725 16.8858 14.5378 18.6973C14.703 18.5068 14.8761 18.3197 15.0572 18.1358C16.4059 16.8013 18.0905 15.8564 19.9325 15.4013V10.5689Z" fill="#00FFB9"/>
</svg>
