
<svg width="32" height="32" viewBox="0 0 32 32" fill="none" xmlns="http://www.w3.org/2000/svg">
<rect width="32" height="32" rx="16" fill="#040404"/>
<path fill-rule="evenodd" clip-rule="evenodd" d="M20.7413 17.4737C17.3034 17.4737 14.5172 14.6883 14.5172 11.255C14.5172 9.45749 13.0672 8 11.2587 8C9.46639 8 8 9.45749 8 11.255C8 13.0526 9.45007 14.5101 11.2587 14.5101H11.2749C14.6965 14.5101 17.4664 17.2955 17.4826 20.7287V20.7449C17.4826 22.5425 18.9327 24 20.7413 24C22.5499 24 24 22.5425 24 20.7449C23.9837 18.9312 22.5336 17.4737 20.7413 17.4737Z" fill="url(#paint0_linear_1924_527)"/>
<path fill-rule="evenodd" clip-rule="evenodd" d="M11.275 17.4737C9.48274 17.4737 8.01636 18.9312 8.01636 20.7287C8.01636 22.5263 9.46643 23.9838 11.275 23.9838C13.0836 23.9838 14.5337 22.5263 14.5337 20.7287C14.5174 18.9312 13.0673 17.4737 11.275 17.4737Z" fill="url(#paint1_linear_1924_527)"/>
<path fill-rule="evenodd" clip-rule="evenodd" d="M20.7414 8C22.5411 8 24 9.45731 24 11.255C24 13.0527 22.5411 14.5101 20.7414 14.5101C18.9416 14.5101 17.4827 13.0527 17.4827 11.255C17.4827 9.45731 18.9416 8 20.7414 8Z" fill="url(#paint2_linear_1924_527)"/>
<defs>
<linearGradient id="paint0_linear_1924_527" x1="16" y1="8" x2="16" y2="24" gradientUnits="userSpaceOnUse">
<stop stop-color="#0BCE0D"/>
<stop offset="1" stop-color="#0A8D19"/>
</linearGradient>
<linearGradient id="paint1_linear_1924_527" x1="16" y1="8" x2="16" y2="24" gradientUnits="userSpaceOnUse">
<stop stop-color="#0BCE0D"/>
<stop offset="1" stop-color="#0A8D19"/>
</linearGradient>
<linearGradient id="paint2_linear_1924_527" x1="16" y1="8" x2="16" y2="24" gradientUnits="userSpaceOnUse">
<stop stop-color="#0BCE0D"/>
<stop offset="1" stop-color="#0A8D19"/>
</linearGradient>
</defs>
</svg>
