
<svg width="1024" height="1024" viewBox="0 0 1024 1024" fill="none" xmlns="http://www.w3.org/2000/svg">
<path fill-rule="evenodd" clip-rule="evenodd" d="M709.951 573.526C566.419 573.526 450.095 457.236 450.095 313.898C450.095 238.85 389.555 178 314.049 178C239.222 178 178 238.85 178 313.898C178 388.948 238.541 449.798 314.049 449.798H314.728C457.579 449.798 573.222 566.089 573.9 709.425V710.101C573.9 785.149 634.442 845.999 709.951 845.999C785.46 845.999 845.999 785.149 845.999 710.101C845.319 634.377 784.777 573.526 709.951 573.526Z" fill="url(#paint0_linear_1122_405)"/>
<path fill-rule="evenodd" clip-rule="evenodd" d="M709.951 573.526C566.419 573.526 450.095 457.236 450.095 313.898C450.095 238.85 389.555 178 314.049 178C239.222 178 178 238.85 178 313.898C178 388.948 238.541 449.798 314.049 449.798H314.728C457.579 449.798 573.222 566.089 573.9 709.425V710.101C573.9 785.149 634.442 845.999 709.951 845.999C785.46 845.999 845.999 785.149 845.999 710.101C845.319 634.377 784.777 573.526 709.951 573.526Z" fill="black" fill-opacity="0.2"/>
<path fill-rule="evenodd" clip-rule="evenodd" d="M314.732 573.526C239.905 573.526 178.683 634.377 178.683 709.424C178.683 784.474 239.223 845.325 314.732 845.325C390.238 845.325 450.78 784.474 450.78 709.424C450.1 634.377 389.56 573.526 314.732 573.526Z" fill="url(#paint1_linear_1122_405)"/>
<path fill-rule="evenodd" clip-rule="evenodd" d="M314.732 573.526C239.905 573.526 178.683 634.377 178.683 709.424C178.683 784.474 239.223 845.325 314.732 845.325C390.238 845.325 450.78 784.474 450.78 709.424C450.1 634.377 389.56 573.526 314.732 573.526Z" fill="black" fill-opacity="0.2"/>
<path fill-rule="evenodd" clip-rule="evenodd" d="M709.951 178C785.089 178 846 238.843 846 313.898C846 388.952 785.089 449.798 709.951 449.798C634.812 449.798 573.901 388.952 573.901 313.898C573.901 238.843 634.812 178 709.951 178Z" fill="url(#paint2_linear_1122_405)"/>
<path fill-rule="evenodd" clip-rule="evenodd" d="M709.951 178C785.089 178 846 238.843 846 313.898C846 388.952 785.089 449.798 709.951 449.798C634.812 449.798 573.901 388.952 573.901 313.898C573.901 238.843 634.812 178 709.951 178Z" fill="black" fill-opacity="0.2"/>
<defs>
<linearGradient id="paint0_linear_1122_405" x1="512" y1="178" x2="512" y2="845.999" gradientUnits="userSpaceOnUse">
<stop stop-color="#0BCE0D"/>
<stop offset="1" stop-color="#035A0D"/>
</linearGradient>
<linearGradient id="paint1_linear_1122_405" x1="512" y1="178" x2="512" y2="845.999" gradientUnits="userSpaceOnUse">
<stop stop-color="#0BCE0D"/>
<stop offset="1" stop-color="#035A0D"/>
</linearGradient>
<linearGradient id="paint2_linear_1122_405" x1="512" y1="178" x2="512" y2="845.999" gradientUnits="userSpaceOnUse">
<stop stop-color="#0BCE0D"/>
<stop offset="1" stop-color="#035A0D"/>
</linearGradient>
</defs>
</svg>
