<svg xmlns="http://www.w3.org/2000/svg" width="31" height="32" fill="none" viewBox="0 0 31 32" class="buffer-icon"><path fill="#3772FF" d="M15.242 31.097c8.387 0 15.187-6.8 15.187-15.187 0-8.388-6.8-15.187-15.187-15.187C6.854.723.055 7.523.055 15.91s6.8 15.187 15.187 15.187z"></path><path fill="#fff" d="M8.166 13.287h4.139c-.448-.658-.842-1.259-1.265-1.839-.063-.087-.263-.1-.4-.102-1.153-.008-2.307.008-3.46-.017-.18-.003-.407-.134-.521-.278-.319-.403-.59-.845-.922-1.331.183-.015.306-.033.43-.033 1.775-.002 3.55.005 5.324-.007.286-.002.452.09.611.328 1.021 1.521 2.057 3.033 3.122 4.596.101-.126.188-.216.257-.318.975-1.43 1.943-2.862 2.929-4.283.1-.146.31-.304.47-.306 1.864-.02 3.727-.013 5.59-.011.069 0 .137.019.276.038-.362.533-.68 1.026-1.028 1.495-.066.09-.258.117-.39.118-1.155.008-2.308.013-3.462-.001-.266-.004-.428.074-.573.304-.336.535-.704 1.05-1.109 1.646h4.133c-.394.584-.718 1.087-1.074 1.567-.065.088-.26.11-.395.112-1.095.01-2.19.022-3.283-.001-.378-.008-.615.093-.83.424-.484.752-.498.733 0 1.442.486.689.964 1.383 1.426 2.088.828 1.262.765 2.906-.14 4.07-.928 1.193-2.481 1.67-3.893 1.194a3.512 3.512 0 01-2.395-3.297 3.45 3.45 0 01.635-2.041c.56-.8 1.096-1.615 1.659-2.412.16-.227.134-.38.011-.627-.338-.679-.82-.92-1.586-.854-.925.079-1.862.033-2.794.007a.788.788 0 01-.528-.273c-.324-.412-.6-.863-.964-1.399zm7.141 4.338c-.08.06-.123.08-.146.112-.501.73-1.018 1.451-1.495 2.198-.464.724-.312 1.674.32 2.266.628.59 1.561.662 2.287.177.695-.465 1.063-1.404.68-2.139-.473-.906-1.087-1.739-1.646-2.614z"></path></svg>
